<?xml version="1.0" encoding="utf-8"?>
<svg version="1.1" x="0px" y="0px" viewBox="0 0 100 125" enable-background="new 0 0 100 100" xmlns="http://www.w3.org/2000/svg">
  <path d="M50.2,5.2c-24.8,0-45,20.2-45,45c0,12.7,5.4,24.7,14.6,33.1l-7,7l23,3.9l-3.9-23L24,79.1c-8-7.3-12.8-17.8-12.8-28.9  c0-21.5,17.5-39,39-39c21.5,0,39,17.5,39,39s-17.5,39-39,39v6c24.8,0,45-20.2,45-45S75,5.2,50.2,5.2z" style="fill: rgb(211, 0, 0);"/>
  <polygon points="40.6,34.1 40.6,68 69.7,51.1 " style="fill: rgb(211, 0, 0);"/>
</svg>